<svg width="196" height="167" viewBox="0 0 196 167" fill="none" xmlns="http://www.w3.org/2000/svg">
<path d="M50 52.0119C50 46.0168 55.0111 41.2386 60.9994 41.5238V41.5238C66.5979 41.7904 71 46.4071 71 52.0119V63.5V73.5C71 79.299 66.299 84 60.5 84V84C54.701 84 50 79.299 50 73.5V52.0119Z" fill="url(#paint0_linear_34_60)"/>
<path d="M54.3717 71.8116C55.0467 75.8609 56.8719 79.3116 58.8718 81.8116C60.8717 84.3116 57.8718 82.4783 56.3718 81.3116C54.8718 80.1449 52.8717 78.4659 51.8717 77.3116C49.9243 75.0637 48.7719 72.8116 48.3718 70.8116C47.8717 68.3116 47.8804 54.2694 48.3718 51.8116C48.8717 49.3116 50.2435 46.4931 52.8718 44.3116C55.8656 41.8268 63.3717 40.3116 61.8717 41.3116C60.2471 42.3947 58.5966 43.5657 57.8717 44.3116C56.0975 46.1375 55.3717 46.8116 54.8718 49.8116C54.3719 52.8116 53.8717 68.8117 54.3717 71.8116Z" fill="black" stroke="black"/>
<path d="M28 48.0002C22.5 59.0002 21.5 64.5004 21.5 64.5004L16 67.0004L17 61.5004C18 56.0004 20.842 50.4695 23.5 45.5002C35 24.0002 45.5643 16.5001 45.5643 16.5001C48.9124 13.5648 53.1488 11.2349 57 9.00015C63.5 5.22835 72 3.01088 81.0642 1.50015C83.0369 1.17136 91.4619 0.657352 97.5643 2.00012C101.426 2.84978 106 4.62329 108 6.62329C108.714 7.33702 105 5.37702 99.5 5.00015C94 4.62329 90 4.62329 86.5642 5.00015C83.1284 5.37702 81.8697 5.28014 77 6.50015C73.5 7.37702 70.0355 8.58598 66.5 10.0002C54 15 48.8463 18.8604 42.5 26C34.5002 34.9998 30.9356 42.129 28.0002 47.9998L28 48.0002Z" fill="black" stroke="black"/>
<path d="M37 59.2151L46.5 56.7151C46.5 56.7151 46.2826 51.3279 47.5 48.2151C48.9662 44.4662 50.9715 42.8669 54 40.2151C59.7292 35.1984 72 32.7151 72 32.7151L99.5 24.2151L101 28.7151C101 28.7151 97.9338 29.7401 96 30.2151C92.4021 31.0988 91.5 31.2151 87 32.7151C83.1811 33.9881 80.7722 34.3706 77.5 36.7151C74.1254 39.1329 72.5384 41.0987 70.5 44.7151C69.3857 46.692 68.5 49.5 68 53C67.7725 54.5924 67.5 57.5 67.5 59.2151C67.5 59.5 68.298 51.5145 70.5 47.2151C73.0207 42.2933 75.3401 39.6922 80 36.7151C83.852 34.2542 91 32.7151 91 32.7151L116 26.5C121.5 25 123.758 24.4371 128 23.5C129.544 23.1589 140.5 20.7849 133 22L116.5 24.7151L114.5 21.2151L124.5 20.2151C124.5 20.2151 117.154 15.6401 112 13.7151C106.008 11.4773 102.378 10.6942 96 10.2151C89.757 9.74616 86.1471 10.0284 80 11.2151C72.2358 12.7139 67.9443 14.4328 61 18.2151C53.6605 22.2127 49.6924 25.0958 44 31.2151C38.1347 37.5203 32 49.7151 32 49.7151L26 63.2151L37 59.2151Z" fill="black" stroke="black"/>
<path d="M10.0582 84.5C10.344 88.3356 13.0582 94 13.0582 94C13.0582 94 20.7246 87.8304 26.0582 84.5C30.5788 81.6772 33.017 79.7295 38.0582 78C41.4638 76.8316 47.0582 77 47.0582 77C46.3915 76.1667 45.317 73.0528 45.0582 71.5C44.5582 68.5 44.5582 67 45.0582 63C45.0582 63 32.4436 65.7942 25.5582 69C19.122 71.9966 17.0582 73.5 12.0582 77.5C10.0527 79.1044 9.86729 81.9388 10.0582 84.5Z" fill="black" stroke="black"/>
<path d="M77.7586 134.056C79.0432 134.562 81.2586 134.556 81.2586 134.556C72.7586 138.389 66.1194 143.752 55.2586 146.056C49.4997 147.278 48.7585 147.556 44.2586 147.556C39.7587 147.556 33.2585 147.056 30.2586 146.056C28.5449 145.485 26.2585 145.056 20.2585 139.056C14.2585 133.056 9.75854 120.556 10.7586 122.056C11.7587 123.556 13.9211 125.085 16.7585 127.056C20.1302 129.398 22.7585 130.723 26.7585 132.556C30.7585 134.389 38.9301 135.448 44.2586 135.556C47.5831 135.623 52.7586 135.056 52.7586 135.056C52.7586 135.056 27.8523 126.231 13.2585 114.556C10.7584 112.556 4.75848 107.556 3.25856 104.056C1.64154 100.283 0.453552 96.0814 1.25861 92.0559C2.25857 87.0559 2.25849 87.5559 3.25854 84.0559C3.46917 83.3188 3.91956 90.0468 5.25861 93.5559C7.33539 98.9984 11.9273 102.556 14.7586 105.056C18.2586 108.146 23.031 110.89 29.7586 114.056C38.2586 118.056 61.2586 127.556 77.7586 134.056Z" fill="black" stroke="black"/>
<path d="M177 109C185.133 100.289 194.5 84 194.5 84C194.5 84 194.951 93.3112 193.5 99C192.461 103.076 191.503 105.301 189.5 109C185.353 116.658 181.512 120.336 174.5 125.5C167.395 130.733 162.448 132.453 154 135C148.28 136.724 139 138 139 138C139 138 150.53 130.739 157.5 125.5C165.474 119.506 170.192 116.291 177 109Z" fill="black" stroke="black"/>
<path d="M173.5 135.5C178.83 131.313 185 122.5 185 122.5C183.333 126.667 182.225 130.708 179.5 135.5C174.95 143.5 170 148 165 151.5C160 155 152.659 159.487 143.5 161C133.645 162.628 124.243 162.201 114.5 160C109.319 158.83 104 156 104 156L128 142L124 146.5C124 146.5 135.696 147.144 142.5 146.5C146.431 146.128 152.5 145 152.5 145C152.5 145 166.421 141.06 173.5 135.5Z" fill="black" stroke="black"/>
<path d="M165.5 48C161.729 43.3955 154 38 154 38C154 38 163.065 40.6794 168 44C173.614 47.7776 177.164 51.8559 180 58C181.846 62 182 66.5 182 69.5C182 76 180.503 82.8277 176.5 89.5C172 97 164 107 157.5 113C150.152 119.783 132 133 116.5 142.5C110.167 146.382 86 161.5 79.5 163C73.4924 164.386 65.5 167 51 165C40.4115 163.54 34 155 34 155C34 155 46.1475 156.02 55 154.5C62.4856 153.215 75.2067 147.897 82 144.5C95 138 104.5 133 127 119C144.008 108.417 151.5 101.364 164.5 86C168.97 80.7173 172.5 73 172.5 67C172.5 63.7797 172.232 59.4753 171 56.5C169.505 52.8898 168.04 51.1009 165.587 48.1065L165.5 48Z" fill="black" stroke="black"/>
<path d="M23.5863 92.467C31.0862 87.467 49.5866 82.467 49.5866 82.467C49.5866 82.467 54.4676 85.9623 58.0866 86.967C62.6021 88.2207 70.0866 86.967 70.0866 86.967C70.0866 86.967 65.6725 83.2217 63.5862 79.967C61.9811 77.4632 61.0538 75.8662 60.0866 72.967C59.5862 71.467 64.1532 79.2183 67.5866 82.467C71.3632 86.0405 73.6789 87.7493 78.5862 89.467C89.2707 93.207 108.086 82.467 108.086 82.467C108.086 82.467 110.449 76.3812 114.586 74.467C116.436 73.611 118.048 72.979 120.087 72.967C123.671 72.946 128.087 77.467 128.087 77.467C128.087 77.467 144.993 75.7438 150.086 67.467C154.086 60.967 153.087 46.467 153.087 46.467C153.087 46.467 160.295 50.1893 162.587 53.967C166.758 60.8447 166.415 66.6339 164.587 74.467C162.69 82.5902 153.087 92.467 153.087 92.467C153.087 92.467 142.083 101.379 134.587 106.467C117.821 117.846 88.5866 130.467 88.5866 130.467C88.5866 130.467 60.5865 123.967 23.0862 102.467C23.0862 102.467 20.3369 94.6333 23.5863 92.467Z" fill="black" stroke="black"/>
<path d="M103.586 78.467C97.5861 81.4669 87.8766 86.7642 81.0861 81.967C78.595 80.2071 76.7981 79.0586 76.586 73.967C76.0861 61.967 76.586 55.967 77.586 46.967C77.8834 44.2907 83.2803 40.6764 86.5862 39.467C107.086 31.9669 138.586 23.967 142.586 26.467C146.586 28.967 149.086 31.9415 149.086 35.967C149.086 49.467 150.086 56.467 148.586 60.467C147.086 64.467 146.086 65.4669 144.086 66.967C142.086 68.467 133.059 72.616 126.586 70.467C123.757 69.5278 123.488 68.1462 120.586 67.467C118.495 66.9775 117.198 67.0767 115.086 67.467C108.703 68.6466 109.586 75.467 103.586 78.467Z" fill="black" stroke="black"/>
<defs>
<linearGradient id="paint0_linear_34_60" x1="64" y1="41" x2="56.5" y2="84" gradientUnits="userSpaceOnUse">
<stop offset="0.12" stop-color="#4F5259" stop-opacity="0"/>
<stop offset="0.35" stop-color="#4F5259" stop-opacity="0.73"/>
<stop offset="0.745" stop-color="#4F5259" stop-opacity="0.45"/>
<stop offset="0.9" stop-color="#4F5259" stop-opacity="0"/>
</linearGradient>
</defs>
</svg>
